<?xml version="1.0" standalone="no"?>
<!DOCTYPE svg PUBLIC "-//W3C//DTD SVG 20010904//EN"
 "http://www.w3.org/TR/2001/REC-SVG-20010904/DTD/svg10.dtd">
<svg version="1.0" xmlns="http://www.w3.org/2000/svg"
 width="1280.000000pt" height="1224.000000pt" viewBox="0 0 1280.000000 1224.000000"
 preserveAspectRatio="xMidYMid meet">
<metadata>
Created by potrace 1.15, written by Peter Selinger 2001-2017
</metadata>
<g transform="translate(0.000000,1224.000000) scale(0.100000,-0.100000)"
fill="#4caf50" stroke="none">
<path d="M8571 12122 c-70 -615 -373 -1050 -887 -1276 -234 -103 -543 -176
-842 -199 l-54 -4 7 31 c56 262 58 514 5 720 -76 299 -283 540 -610 714 -130
69 -129 70 -64 -60 73 -146 118 -263 152 -396 24 -97 27 -123 26 -287 0 -162
-3 -190 -27 -278 -105 -392 -420 -740 -957 -1059 l-114 -68 -33 124 c-91 345
-229 604 -432 806 -152 152 -325 259 -525 325 -76 25 -196 56 -196 51 0 -2 49
-53 109 -114 262 -269 417 -526 488 -808 25 -98 28 -127 28 -284 0 -193 -12
-270 -68 -440 -55 -167 -216 -462 -330 -604 l-23 -28 -29 73 c-40 99 -133 265
-208 369 -85 118 -252 282 -367 359 -123 82 -267 154 -397 197 -107 36 -316
84 -367 84 -25 0 -19 -6 50 -56 465 -332 742 -698 842 -1114 47 -195 54 -468
17 -675 -17 -97 -78 -326 -102 -388 l-16 -38 -47 89 c-126 238 -295 422 -530
574 -86 56 -289 162 -296 155 -2 -2 32 -75 75 -163 108 -217 181 -394 256
-619 135 -404 199 -727 244 -1225 8 -94 18 -139 57 -250 73 -213 72 -322 -6
-630 -17 -63 -37 -149 -45 -190 -9 -41 -22 -99 -31 -129 l-15 -53 -24 22 c-45
42 -138 182 -190 286 l-53 105 -11 -48 c-33 -138 -52 -332 -61 -618 -6 -165
-15 -416 -21 -557 -14 -334 -6 -408 65 -577 86 -205 247 -366 446 -447 33 -13
64 -24 70 -24 6 0 10 39 10 100 0 55 2 100 5 100 2 0 37 -11 77 -24 226 -76
448 -52 699 75 85 42 91 59 23 59 -54 0 -222 48 -297 84 -132 63 -238 157
-315 279 -44 69 -34 84 32 47 131 -74 283 -105 473 -97 138 5 283 26 283 39 0
4 -9 8 -21 8 -64 0 -232 71 -320 136 -64 47 -176 167 -227 243 -60 90 -55 117
12 66 48 -37 153 -81 224 -95 101 -20 253 -3 366 40 l30 11 -54 25 c-119 55
-234 213 -308 425 -26 74 -29 90 -18 105 13 17 17 16 82 -13 116 -53 178 -67
299 -67 62 -1 134 5 164 13 l53 14 -62 29 c-89 43 -165 124 -222 233 -25 50
-51 107 -58 128 -11 34 -10 41 12 73 17 26 28 33 43 29 72 -22 111 -26 195
-22 99 5 178 26 279 75 61 30 66 26 -69 51 -72 14 -154 48 -213 88 l-38 26 38
40 c21 21 66 59 99 83 169 121 319 140 481 62 98 -48 100 -53 52 -123 -140
-208 -288 -486 -371 -694 -50 -127 -146 -451 -169 -571 -21 -106 -15 -378 12
-600 33 -278 34 -581 1 -730 -56 -252 -161 -444 -384 -705 l-43 -50 55 45
c236 191 381 361 466 545 39 84 59 153 77 259 l13 79 58 -107 c99 -180 255
-400 387 -546 48 -53 47 -50 -16 55 -119 197 -236 459 -299 669 -146 480 -119
981 74 1366 145 290 436 738 463 711 11 -11 55 -185 93 -371 l26 -125 -56 -52
c-63 -59 -172 -117 -251 -133 -30 -6 -53 -15 -50 -20 3 -5 30 -14 59 -21 69
-15 195 -7 268 18 l56 20 6 -21 c7 -26 -20 -55 -98 -107 -77 -51 -168 -79
-262 -79 -41 0 -74 -4 -74 -9 0 -14 82 -86 131 -114 69 -41 160 -60 256 -55
81 4 83 4 83 -19 0 -59 -241 -156 -430 -172 l-85 -7 55 -27 c118 -56 276 -73
405 -43 99 24 87 4 -45 -72 -181 -103 -355 -163 -538 -183 l-106 -12 58 -54
c102 -95 210 -135 365 -135 85 0 219 22 284 47 16 7 17 2 11 -62 -5 -52 -3
-71 7 -80 17 -14 140 -33 212 -33 88 0 180 52 297 169 82 82 230 258 230 274
0 2 -19 3 -42 1 -67 -6 -136 23 -174 73 -40 52 -54 116 -54 241 0 194 41 384
222 1027 164 585 180 673 139 760 -10 22 -51 85 -91 140 -83 115 -99 145 -128
235 -33 101 -44 185 -43 320 1 191 44 388 115 527 104 204 318 400 558 512
110 52 187 70 328 78 285 14 592 -82 780 -245 148 -128 255 -346 308 -627 25
-131 24 -565 -1 -725 -55 -351 -158 -660 -335 -1004 -107 -207 -187 -338 -310
-501 -149 -200 -390 -439 -534 -530 -26 -17 -47 -34 -48 -39 -1 -21 273 18
415 58 308 89 649 300 953 590 l95 91 -7 -140 c-73 -1473 -762 -2591 -1957
-3175 -894 -437 -2022 -531 -2864 -240 -1782 617 -2932 2090 -3364 4310 -68
353 -124 754 -152 1098 -7 84 -16 152 -19 152 -9 0 -132 -337 -174 -475 -75
-253 -127 -512 -162 -810 -22 -186 -25 -707 -6 -885 66 -588 203 -1092 442
-1620 231 -510 581 -1047 970 -1490 632 -720 1382 -1280 2025 -1513 846 -306
2059 -371 3170 -171 1268 228 2372 761 3247 1567 572 528 1049 1196 1400 1962
193 421 382 985 493 1475 21 91 39 167 41 169 9 10 172 -117 255 -199 141
-140 258 -332 299 -491 19 -76 21 -76 41 -14 184 569 178 1148 -17 1740 -133
401 -339 786 -674 1257 -18 26 -31 50 -28 53 16 16 262 68 388 82 123 14 164
15 275 5 158 -15 308 -51 418 -102 15 -7 29 -11 32 -8 8 8 -61 246 -94 327
-131 315 -345 553 -649 725 -207 117 -509 215 -787 256 -44 6 -86 14 -94 16
-8 3 18 36 70 92 228 239 396 501 523 812 50 124 113 317 131 398 l7 33 -91
-61 c-100 -67 -260 -147 -360 -179 -129 -42 -211 -54 -361 -54 -212 0 -352 35
-577 143 l-121 59 40 93 c166 385 207 764 127 1167 l-11 54 -54 -103 c-260
-489 -615 -772 -1077 -857 -112 -21 -414 -24 -527 -5 -83 14 -244 44 -247 46
-1 1 33 72 77 159 259 514 247 928 -39 1370 -34 52 -69 101 -79 110 -18 16
-19 12 -31 -91z m-4412 -4599 c125 -329 131 -632 17 -862 -47 -96 -87 -152
-168 -236 l-68 -70 -21 25 c-11 14 -34 54 -51 88 -64 132 -46 254 72 512 132
287 172 416 174 562 1 42 4 74 7 70 4 -4 20 -44 38 -89z"/>
</g>
</svg>
